<?xml version="1.0" encoding="UTF-8"?>
<!-- Created with Inkscape (http://www.inkscape.org/) -->
<svg width="1024" height="1024" version="1.1" viewBox="0 0 270.93 270.93" xmlns="http://www.w3.org/2000/svg" xmlns:cc="http://creativecommons.org/ns#" xmlns:dc="http://purl.org/dc/elements/1.1/" xmlns:rdf="http://www.w3.org/1999/02/22-rdf-syntax-ns#">
 <title>h7_corona</title>
 <metadata>
  <rdf:RDF>
   <cc:Work rdf:about="">
    <dc:format>image/svg+xml</dc:format>
    <dc:type rdf:resource="http://purl.org/dc/dcmitype/StillImage"/>
    <dc:title>h7_corona</dc:title>
   </cc:Work>
  </rdf:RDF>
 </metadata>
 <g transform="translate(0 -26.067)">
  <path d="m149.36 87.694c1.3367-1.4867 2.4303-2.9766 2.4303-3.311 0-0.33434-1.6959-2.7494-3.7687-5.3667-4.3431-5.4841-6.9882-10.62-8.2594-16.036-0.49098-2.0921-1.0216-3.8023-1.1792-3.8005-0.71048 0.0083-4.5858 7.645-5.6375 11.109-1.1256 3.7075-0.90627 6.1356 0.88222 9.7685 0.91724 1.8632 1.7476 4.5526 1.9193 6.2166l0.30269 2.9328 4.2984 0.51612c2.3641 0.28387 4.8121 0.55174 5.44 0.59526 0.76095 0.05276 1.9519-0.82217 3.5719-2.6239zm-43.186 10.806c5.813-2.7338 14.988-5.2134 21.274-5.7497 2.4738-0.21106 4.6729-0.64834 4.8867-0.97172 0.83229-1.2588 0.3551-6.9393-0.81031-9.646-1.6109-3.7413-3.886-5.4909-10.956-8.425-7.035-2.9197-11.628-5.9557-14.969-9.8951-3.6902-4.3506-4.5767-6.544-4.9168-12.166-0.16327-2.6984-0.64649-5.8907-1.0738-7.0941-1.2976-3.6541-8.9078-10.237-12.751-11.03l-1.6959-0.34978 1.6034 3.2087c3.5118 7.0278 2.9831 11.31-2.6508 21.471-4.1424 7.4711-5.0115 10.338-5.0528 16.669-0.0458 7.0067 0.79171 8.9085 5.8394 13.26 2.1746 1.8747 4.5118 4.3611 5.1937 5.5253 1.4763 2.5202 2.4278 6.657 2.4278 10.555v2.8302l4.3656-2.9395c2.4011-1.6167 6.5794-3.9806 9.2851-5.253zm-20.519 10.285 3.7801-3.8365-0.32582-2.8883c-0.64949-5.7577-9e-3 -5.3138-7.6717-5.3138-8.735 0-13.531-1.1643-21.311-5.1731-0.57069-0.29406 1.3634 5.0639 2.9784 8.2509 0.77744 1.5342 2.5353 3.9332 3.9064 5.3311 2.1947 2.2376 2.9676 2.6541 6.4616 3.4816 2.2765 0.53917 4.8713 1.579 6.0854 2.4386 1.1642 0.82425 2.1617 1.5092 2.2167 1.5222 0.055 0.013 1.8011-1.7028 3.8801-3.8129zm101.76 4.4622c2.738-2.6312 4.3947-5.659 4.7852-8.746 0.25785-2.0384-0.0713-3.9368-1.6058-9.2604-1.5858-5.5017-1.9371-7.5933-1.9694-11.724-0.0707-9.0325 1.5302-13.095 7.1155-18.059 5.1719-4.5965 5.9478-6.2421 6.206-13.161 0.17319-4.6411 0.0335-5.992-0.84762-8.2021l-1.0549-2.6458-0.37952 1.5875c-0.5533 2.3144-2.7632 6.0635-4.8902 8.296-2.3844 2.5027-5.9584 3.8067-14.943 5.4521-8.0511 1.4744-12.949 3.5242-17.053 7.1374-3.996 3.5174-5.0877 5.9117-5.4675 11.991-0.48968 7.8386-1.2402 9.6631-5.8553 14.233l-3.9141 3.8761 3.0483 0.85675c10.992 3.0893 21.909 9.626 28.977 17.351 3.6978 4.0409 4.5831 4.1557 7.8486 1.0176zm16.194 6.3857c1.7818-7.1363 4.2952-12.603 7.711-16.772 1.0164-1.2404 1.848-2.4033 1.848-2.5844s-0.77391-0.20508-1.7198-0.0534c-11.428 1.8321-14.685 3.5045-17.345 8.9072-0.90712 1.8426-2.5847 4.2636-3.7279 5.3799-1.1432 1.1163-2.0786 2.2067-2.0786 2.4231 0 0.90249 5.3553 8.664 6.2118 9.0028 0.51259 0.20279 2.3908 0.38543 4.1738 0.40589l3.2418 0.0372zm-133.8 25.268c1.4362-7.7281 5.4672-17.507 9.7308-23.606 2.7886-3.9891 2.7125-4.5037-1.0479-7.091-5.8788-4.0447-9.6548-3.8098-18.801 1.1697-7.0972 3.8639-11.718 5.1941-17.932 5.1623-5.5469-0.0284-7.4217-0.66421-12.043-4.0844-4.1686-3.0848-6.9683-3.9977-10.873-3.5453-4.2605 0.4935-9.4857 2.1902-11.25 3.653l-1.5875 1.3161 1.5875 0.0248c2.4248 0.0378 6.1382 1.3162 9.032 3.1094 3.2086 1.9883 4.9071 4.613 8.5477 13.209 3.5637 8.4142 6.3863 12.134 11.978 15.785 3.6574 2.3881 6.086 2.8274 10.773 1.9486 8.2048-1.5382 12.258-0.66132 18.407 3.9819l2.1167 1.5984 0.3622-4.5957c0.1992-2.5276 0.64984-6.1435 1.0014-8.0353zm141.36 25.509c1.1378-0.78777 3.9815-4.0517 6.3194-7.2532 4.811-6.5883 8.6195-10.087 13.819-12.694 4.75-2.382 7.369-2.7218 12.747-1.6538 6.7784 1.3462 9.8051 0.4346 16.102-4.8494 1.5378-1.2905 3.2691-3.2736 3.8472-4.4068 0.57815-1.1332 0.9868-2.0568 0.90811-2.0525-0.0787 4e-3 -1.0955 0.35112-2.2597 0.77052-1.1642 0.41941-3.97 0.77301-6.2353 0.78579-5.3563 0.0302-7.5284-1.0597-14.743-7.3976-6.472-5.6853-10.519-8.1004-15.55-9.2808-6.638-1.5572-9.8994-0.71398-16.385 4.2364-4.459 3.4037-8.7256 4.038-16.275 2.4198-1.0914-0.23396-1.9844-0.35137-1.9844-0.26091 0 0.0904 0.5039 1.3153 1.1198 2.7219 1.8084 4.13 4.0846 12.518 4.7509 17.506 0.58565 4.3848 0.41172 13.423-0.37 19.226-0.31014 2.3025-0.25018 2.4549 1.1874 3.0181 2.384 0.93392 3.9119 1.1043 7.5468 0.84145 2.5542-0.18468 3.8955-0.59704 5.4556-1.6772zm-157.08 5.7376c0.72761-0.27664 2.7076-1.5546 4.4001-2.84 1.6924-1.2854 4.2062-2.6372 5.5862-3.0041 2.4962-0.66368 2.5075-0.6769 2.217-2.584-0.16059-1.0543-0.4562-3.4531-0.65692-5.3308l-0.36494-3.4139-3.3125-2.0705c-3.8936-2.4337-3.4516-2.622-8.4647 3.6067-4.2125 5.2339-7.6442 8.1116-13.002 10.903-2.2778 1.1866-4.0575 2.2414-3.955 2.344 0.10254 0.10255 2.2043 0.78274 4.6706 1.5115 4.6992 1.3886 10.5 1.7842 12.882 0.87845zm151.88 12.753c6.6072-3.1166 11.943-4.498 17.394-4.5032 2.2556-2e-3 4.101-0.17819 4.101-0.3912 0-0.86599-6.6072-6.2865-9.6203-7.8925-3.5651-1.9002-5.87-2.158-10.375-1.1606-1.5886 0.35174-4.1607 0.4768-5.9531 0.28946-2.8558-0.2985-3.1578-0.23462-3.1742 0.67155-0.01 0.55078-0.71917 2.7788-1.5759 4.9511l-1.5577 3.9497 2.1672 3.3264c1.192 1.8295 2.3887 3.3264 2.6594 3.3264 0.27069 0 2.9411-1.1552 5.9342-2.567zm-173.95 36.976c3.8228-1.4319 6.1693-1.2237 15.674 1.3906 8.3869 2.3068 13.983 2.515 19.614 0.72961 4.3906-1.3921 7.1736-3.949 9.8095-9.0122 3.3954-6.5223 5.1312-7.7598 15.22-10.851 0.33376-0.10227-1.7337-2.5512-4.5944-5.442-7.6253-7.7057-13.64-17.577-16.141-26.491-0.51699-1.8426-1.2902-3.4845-1.7182-3.6487-1.2897-0.49491-6.0341 0.9412-8.7405 2.6457-3.4776 2.1902-4.9411 5.2424-6.247 13.029-1.2204 7.2768-2.4642 10.715-5.6211 15.54-3.372 5.1538-5.9985 7.0973-11.943 8.8374-2.719 0.79591-5.7079 2.0122-6.6421 2.7028-3.1763 2.3483-7.4862 10.6-7.4862 14.333v2.0569l2.8622-2.3313c1.5742-1.2822 4.2531-2.8522 5.9531-3.489zm62.413 10.839c3.9413-3.8644 4.8634-5.8828 4.9089-10.745 0.0223-2.3845 0.41216-4.6586 1.096-6.3935l1.0613-2.6926-1.706-0.8822c-0.9383-0.48521-2.9777-1.7266-4.532-2.7586l-2.826-1.8764-3.6844 1.2544c-2.0264 0.6899-3.7775 1.4049-3.8912 1.5889s0.38011 3.0481 1.0974 6.3646c1.5259 7.0552 1.7231 14.581 0.49908 19.047-0.43869 1.6007-0.80044 3.0868-0.8039 3.3024-0.0136 0.85334 5.6945-3.1832 8.7808-6.2093zm76.984 4.5816c-0.0309-8.7171-0.92613-11.13-5.4464-14.682-1.9708-1.5484-3.5666-3.3402-4.277-4.8025-0.62331-1.2829-1.3798-2.2634-1.6811-2.1787-0.30129 0.0846-2.6215 0.85248-5.156 1.7063-4.9803 1.6777-4.921 1.6153-6.4551 6.7912l-0.75058 2.5323 5.9066 2.9622c7.1207 3.5712 11.303 6.6938 14.529 10.848 1.3977 1.7999 2.6112 2.912 2.8819 2.6412 0.25719-0.2572 0.45909-2.8756 0.44866-5.8188zm58.162 6.8357 1.3229-0.38-1.6149-0.84955c-1.9171-1.0085-5.3007-4.5894-7.1296-7.5454-1.2836-2.0747-1.3103-2.3423-1.3457-13.494-0.0412-12.99-0.63398-15.891-4.3269-21.177-2.5902-3.7074-4.4238-4.8958-9.7793-6.3373-6.3004-1.6959-8.3962-3.1032-11.474-7.7043-1.4368-2.1482-2.7765-4.4228-2.977-5.0546-0.31644-0.99704-0.59198-0.72325-2.0858 2.0726-4.9039 9.1783-13.782 18.61-22.723 24.138-2.789 1.7246-5.0658 3.3914-5.0594 3.7042 0.0296 1.4473 2.2671 5.2851 4.4283 7.5956 3.2687 3.4945 5.6085 4.0603 14.791 3.5766 8.0393-0.42351 12.709 0.30105 18.051 2.8009 4.5954 2.1504 6.7373 4.2496 9.2353 9.0511 1.3718 2.6368 2.9117 4.755 4.1571 5.7185 4.0996 3.1714 12.302 5.0987 16.53 3.8841zm-106.58 37.659c0.0739-7.9434 1.9004-10.781 11.394-17.699 3.0273-2.2062 6.5911-5.1732 7.9194-6.5933 3.0549-3.2659 5.7217-8.6466 6.2814-12.674 0.39831-2.8657 0.28452-3.483-1.4039-7.6164-2.789-6.8278-3.1062-8.8358-2.0562-13.016 0.48587-1.9343 1.3663-4.4635 1.9566-5.6204 0.59025-1.157 0.96892-2.2078 0.84151-2.3352-0.12741-0.12743-1.2751 0.0191-2.5505 0.32565-3.8683 0.92971-15.139 1.2631-20.129 0.59531-5.5053-0.73668-11.219-2.1936-15.528-3.9596-2.961-1.2135-3.2404-1.2425-4.1447-0.43015-1.4043 1.2614-2.5137 4.138-2.9972 7.7717-0.58227 4.376 0.80604 7.3123 6.4598 13.662 5.0297 5.6492 7.2756 9.5004 8.8468 15.17 1.5817 5.7079 1.4332 7.6426-1.0209 13.301-1.1642 2.6841-2.1167 5.6955-2.1167 6.6919 0 4.3654 2.8078 10.87 6.2774 14.542 1.0312 1.0914 1.8876 1.9844 1.9031 1.9844 0.0155 0 0.0454-1.8455 0.0664-4.101z"/>
 </g>
</svg>
